<?xml version="1.0" encoding="utf-8"?>
<svg viewBox="0 0 36 108" xmlns="http://www.w3.org/2000/svg">
  <g id="label"/>
  <g id="BC"/>
  <g id="brand"/>
  <g id="generic"/>
  <g id="negative"/>
  <g id="creation"/>
  <g id="games"/>
  <g id="Social_and_Interaction"/>
  <g id="Navigation"/>
  <g id="Friends_Status">
    <g id="Available">
      <circle cx="18" cy="90" r="16" style="fill: rgb(155, 212, 188);"/>
      <g/>
    </g>
    <g id="InStudio">
      <circle cx="18" cy="54" r="16" style="fill: rgb(181, 155, 124);"/>
    </g>
    <g id="InGame">
      <circle cx="18" cy="18" r="16" style="fill: rgb(204, 120, 148);"/>
      <g>
        <title>sasd</title>
      </g>
    </g>
  </g>
  <g transform="matrix(1.222426, 0, 0, 1.222426, 4.679546, 40.232887)" style="">
    <path d="M2 5.25C2 3.45507 3.45507 2 5.25 2H16.75C18.5449 2 20 3.45507 20 5.25V8.00934C19.4951 7.95675 18.9878 7.99076 18.5 8.10566V7H3.5V16.75C3.5 17.7165 4.2835 18.5 5.25 18.5H13.2347L12.7935 19.2641C12.6577 19.4994 12.5652 19.7477 12.5135 20H5.25C3.45507 20 2 18.5449 2 16.75V5.25ZM5.25 3.5C4.2835 3.5 3.5 4.2835 3.5 5.25V5.5H18.5V5.25C18.5 4.2835 17.7165 3.5 16.75 3.5H5.25ZM19.8565 9C19.6411 8.98005 19.4255 8.9803 19.2123 9C18.1194 9.10098 17.0907 9.71296 16.5002 10.7357C15.7915 11.9632 15.9109 13.4415 16.685 14.5239L13.6595 19.7641C13.6153 19.8407 13.5788 19.9196 13.5499 20C13.3149 20.6516 13.5724 21.3977 14.1933 21.7562C14.8908 22.1589 15.7828 21.9199 16.1855 21.2224L19.2166 15.9724C20.5321 16.0903 21.8586 15.4548 22.5624 14.2357C23.3244 12.916 23.1291 11.3063 22.1921 10.2105L20.5417 13.0691C20.2195 13.6271 19.506 13.8183 18.948 13.4961C18.39 13.1739 18.1988 12.4604 18.521 11.9024L20.1714 9.04377C20.0667 9.0243 19.9616 9.00974 19.8565 9ZM10.3029 9.2432C10.5828 9.54854 10.5621 10.023 10.2568 10.3029L7.85992 12.5L10.2568 14.6971C10.5621 14.977 10.5828 15.4515 10.3029 15.7568C10.023 16.0621 9.54855 16.0828 9.24321 15.8029L6.24321 13.0529C6.08823 12.9108 6 12.7102 6 12.5C6 12.2898 6.08823 12.0892 6.24321 11.9471L9.24321 9.19713C9.54855 8.91724 10.023 8.93786 10.3029 9.2432ZM13.2568 15.8029L15.2766 13.9514C14.9587 13.0273 14.9412 12.0035 15.2685 11.0412L13.2568 9.19714C12.9515 8.91724 12.477 8.93787 12.1971 9.24321C11.9172 9.54855 11.9379 10.023 12.2432 10.3029L14.6401 12.5L12.2432 14.6971C11.9379 14.977 11.9172 15.4515 12.1971 15.7568C12.477 16.0621 12.9515 16.0828 13.2568 15.8029Z" fill="#212121"/>
  </g>
  <g transform="matrix(1.33736, 0, 0, 1.33736, 2.040208, 73.887497)" style="">
    <path d="M17.7543 13.9997C18.9963 13.9997 20.0032 15.0065 20.0032 16.2486V16.824C20.0032 17.7183 19.6836 18.5831 19.1021 19.2625C17.5327 21.096 15.1455 22.0008 12.0001 22.0008C8.85426 22.0008 6.46825 21.0957 4.90194 19.2614C4.32218 18.5825 4.00366 17.719 4.00366 16.8262V16.2486C4.00366 15.0065 5.01052 13.9997 6.25254 13.9997H17.7543ZM17.7543 15.4997H6.25254C5.83895 15.4997 5.50366 15.835 5.50366 16.2486V16.8262C5.50366 17.3619 5.69477 17.88 6.04263 18.2874C7.29594 19.755 9.26182 20.5008 12.0001 20.5008C14.7384 20.5008 16.706 19.755 17.9625 18.2871C18.3114 17.8795 18.5032 17.3605 18.5032 16.824V16.2486C18.5032 15.835 18.1679 15.4997 17.7543 15.4997ZM12.0001 2.00439C14.7615 2.00439 17.0001 4.24297 17.0001 7.00439C17.0001 9.76582 14.7615 12.0044 12.0001 12.0044C9.2387 12.0044 7.00012 9.76582 7.00012 7.00439C7.00012 4.24297 9.2387 2.00439 12.0001 2.00439ZM12.0001 3.50439C10.0671 3.50439 8.50012 5.0714 8.50012 7.00439C8.50012 8.93739 10.0671 10.5044 12.0001 10.5044C13.9331 10.5044 15.5001 8.93739 15.5001 7.00439C15.5001 5.0714 13.9331 3.50439 12.0001 3.50439Z" fill="#212121"/>
  </g>
  <g transform="matrix(1.459874, 0, 0, 1.459874, 0.575441, 0.160736)" style="">
    <path d="M14.9979 5C18.8639 5 21.9979 8.13401 21.9979 12C21.9979 15.7855 18.9931 18.8691 15.2385 18.9959L14.9979 19H9.00211C5.13611 19 2.00211 15.866 2.00211 12C2.00211 8.21455 5.00689 5.1309 8.76146 5.00406L9.00211 5H14.9979ZM14.9979 6.5H9.00211C5.96454 6.5 3.50211 8.96243 3.50211 12C3.50211 14.9635 5.84589 17.3795 8.7809 17.4956L9.00211 17.5H14.9979C18.0354 17.5 20.4979 15.0376 20.4979 12C20.4979 9.03652 18.1541 6.62046 15.2191 6.50437L14.9979 6.5ZM7.99999 9C8.4142 9 8.74999 9.33579 8.74999 9.75L8.74911 11.248L10.25 11.2487C10.6642 11.2487 11 11.5845 11 11.9987C11 12.413 10.6642 12.7487 10.25 12.7487L8.74911 12.748L8.74999 14.25C8.74999 14.6642 8.4142 15 7.99999 15C7.58578 15 7.24999 14.6642 7.24999 14.25L7.24911 12.748L5.74999 12.7487C5.33578 12.7487 4.99999 12.413 4.99999 11.9987C4.99999 11.5845 5.33578 11.2487 5.74999 11.2487L7.24911 11.248L7.24999 9.75C7.24999 9.33579 7.58578 9 7.99999 9ZM14.75 12.5C15.4403 12.5 16 13.0596 16 13.75C16 14.4404 15.4403 15 14.75 15C14.0596 15 13.5 14.4404 13.5 13.75C13.5 13.0596 14.0596 12.5 14.75 12.5ZM16.75 9C17.4403 9 18 9.55964 18 10.25C18 10.9404 17.4403 11.5 16.75 11.5C16.0596 11.5 15.5 10.9404 15.5 10.25C15.5 9.55964 16.0596 9 16.75 9Z" fill="#212121"/>
  </g>
</svg>